<svg xmlns="http://www.w3.org/2000/svg" width="1280" height="760" viewBox="0 0 1280 760" role="img" aria-label="PPTX Notes to Video app screenshot-style preview">
  <defs>
    <linearGradient id="bg2" x1="0" y1="0" x2="1" y2="1">
      <stop offset="0%" stop-color="#052e16"/>
      <stop offset="100%" stop-color="#14532d"/>
    </linearGradient>
    <linearGradient id="card2" x1="0" y1="0" x2="0" y2="1">
      <stop offset="0%" stop-color="#f0fdf4"/>
      <stop offset="100%" stop-color="#dcfce7"/>
    </linearGradient>
  </defs>
  <rect width="1280" height="760" fill="url(#bg2)"/>
  <rect x="36" y="24" width="1208" height="34" rx="8" fill="#111827" opacity="0.95"/>
  <circle cx="58" cy="41" r="6" fill="#ef4444"/>
  <circle cx="78" cy="41" r="6" fill="#f59e0b"/>
  <circle cx="98" cy="41" r="6" fill="#22c55e"/>
  <rect x="180" y="33" width="780" height="16" rx="8" fill="#1f2937"/>
  <text x="194" y="45" font-family="Verdana, sans-serif" font-size="11" fill="#cbd5e1">http://localhost:8001</text>

  <rect x="110" y="92" width="1060" height="620" rx="20" fill="url(#card2)"/>
  <text x="155" y="145" font-family="Verdana, sans-serif" font-size="18" font-weight="700" fill="#14532d">PPTX Narration</text>
  <text x="155" y="178" font-family="Verdana, sans-serif" font-size="34" font-weight="700" fill="#14532d">PPTX Notes to MP4</text>
  <text x="155" y="208" font-family="Verdana, sans-serif" font-size="16" fill="#166534">Upload a PPTX, read notes, and render narrated video.</text>

  <rect x="155" y="238" width="760" height="190" rx="16" fill="#dcfce7" stroke="#4ade80" stroke-width="2" stroke-dasharray="10 8"/>
  <text x="404" y="322" font-family="Verdana, sans-serif" font-size="28" font-weight="700" fill="#14532d">Drag and drop your PPTX</text>
  <text x="485" y="352" font-family="Verdana, sans-serif" font-size="16" fill="#166534">or click to browse</text>

  <text x="155" y="463" font-family="Verdana, sans-serif" font-size="15" fill="#14532d">Narration speed</text>
  <rect x="155" y="474" width="280" height="42" rx="8" fill="#ffffff" stroke="#86efac"/>
  <text x="170" y="500" font-family="Verdana, sans-serif" font-size="15" fill="#14532d">Faster (+20%)</text>

  <rect x="155" y="540" width="240" height="54" rx="12" fill="#16a34a"/>
  <text x="196" y="573" font-family="Verdana, sans-serif" font-size="18" font-weight="700" fill="#ffffff">Convert to Video</text>

  <rect x="940" y="238" width="190" height="290" rx="12" fill="#052e16"/>
  <text x="955" y="265" font-family="Courier New, monospace" font-size="12" fill="#bbf7d0">[log] Saved upload</text>
  <text x="955" y="285" font-family="Courier New, monospace" font-size="12" fill="#bbf7d0">[log] Notes extracted</text>
  <text x="955" y="305" font-family="Courier New, monospace" font-size="12" fill="#bbf7d0">[log] Slides rendered</text>
  <text x="955" y="325" font-family="Courier New, monospace" font-size="12" fill="#bbf7d0">[log] TTS generated</text>
  <text x="955" y="345" font-family="Courier New, monospace" font-size="12" fill="#bbf7d0">[log] Video ready</text>

  <rect x="940" y="544" width="190" height="75" rx="12" fill="#ffffff" stroke="#86efac"/>
  <text x="955" y="571" font-family="Verdana, sans-serif" font-size="13" fill="#166534">Result:</text>
  <text x="955" y="594" font-family="Verdana, sans-serif" font-size="16" font-weight="700" fill="#14532d">narrated .mp4</text>
</svg>
